<svg xmlns="http://www.w3.org/2000/svg" viewBox="0 0 58 58"><path d="M0 58l4.988-14.963C2.458 38.78 1 33.812 1 28.5 1 12.76 13.76 0 29.5 0S58 12.76 58 28.5 45.24 57 29.5 57c-4.79 0-9.3-1.187-13.26-3.273L0 58z" fill="#2CB742"/><path d="M47.683 37.985c-1.316-2.487-6.17-5.33-6.17-5.33-1.097-.627-2.422-.697-3.048.42 0 0-1.577 1.89-1.978 2.162-1.832 1.24-3.53 1.193-5.242-.52l-3.98-3.98-3.982-3.982c-1.713-1.713-1.76-3.41-.52-5.242.272-.4 2.163-1.978 2.163-1.978 1.116-.627 1.046-1.95.42-3.05 0 0-2.844-4.852-5.33-6.168-1.06-.56-2.358-.364-3.204.482l-1.758 1.757c-5.577 5.577-2.83 11.873 2.746 17.45l5.097 5.097 5.097 5.097c5.577 5.578 11.873 8.324 17.45 2.747l1.758-1.758c.846-.85 1.04-2.148.48-3.205z" fill="#FFF"/></svg>